<?xml version="1.0" encoding="UTF-8"?>
<svg xmlns="http://www.w3.org/2000/svg" viewBox="0 0 1800 1800">
  <defs>
    <style>
      .cls-1 {
        fill: #243143;
      }

      .cls-2 {
        fill: #dedee5;
      }

      .cls-3 {
        fill: #fff;
      }

      .cls-4 {
        fill: #fb0425;
      }

      .cls-5 {
        fill: #b0061f;
      }
    </style>
  </defs>
  <g id="Formes">
    <path class="cls-4" d="M898,301.14l-82,159.86,25,13,11,42-104-55c43,54,100,86,100,86l-1,24-91.39-54h24.39l-97-116.64,107,46.64,108-205,110,205,106-46-94,117h18l-56,32-28-8s90-58,99-81c0,0-99,53-103,52l9-43,23-10-84-158.86Z"/>
    <polygon class="cls-5" points="874 471 900 416.89 925.11 471 933 455 900 386.92 867 454 874 471"/>
    <path class="cls-4" d="M848,1201l-36-23,13,114-154-85,53,99,124,171.01v-55.53l-106-142.48s89,41.17,106,64.09v-142.09Z"/>
    <path class="cls-4" d="M950,1201l36-23-13,114,154-85-53,99-124,171.01v-55.53l106-142.48s-89,41.17-106,64.09v-142.09Z"/>
    <polygon class="cls-4" points="671 1274.69 544.58 1327.51 589 1259 615 1218 628.49 1218 607.79 1277.28 657 1248 671 1274.69"/>
    <polygon class="cls-4" points="1135.58 1274.69 1262 1327.51 1217.58 1259 1191.58 1218 1178.09 1218 1198.79 1277.28 1149.58 1248 1135.58 1274.69"/>
    <path class="cls-4" d="M607.79,1145.44s-6.79,34.56-4.79,36.56l-98,54s-30,16-62,52l-39.03-110-126.97,44,60-111s-42,20-51,27l69-106,1-101-89,58,81-126-61-130,96,34-3,28-48-17,44,78-22,48,84-61-55.39,72.5-2.61,123.5-26,42,24,4-45.54,93,145.54-57.17-9,29.17-37,15,29,65,146.79-84.56Z"/>
    <path class="cls-4" d="M337,670s-28-13-37-15l-73-131,26,5,84,141Z"/>
    <polygon class="cls-4" points="326 581 339 590 418 707 392 697 326 581"/>
    <polygon class="cls-4" points="354 525 364 513 341 500 354 525"/>
    <polygon class="cls-4" points="373 485 388 493 403.46 500 388.23 500 373 485"/>
    <path class="cls-4" d="M393,519h5.59l54.41,78s-20-10-24-10l-36-68Z"/>
    <path class="cls-4" d="M450,394l32.82,118.5,50.18,114.5-37-15s-45-72.09-46-80.05c0,0-17-65.95-14-71.95l-17-151s131,163,132,195l-101-110Z"/>
    <path class="cls-4" d="M1349,394l-32.82,118.5-50.18,114.5,37-15s45-72.09,46-80.05c0,0,17-65.95,14-71.95l17-151s-131,163-132,195l101-110Z"/>
    <polygon class="cls-5" points="520 513 573 550 578 506 611 585 532 554 520 513"/>
    <path class="cls-5" d="M555,596l163,55-8.68,22-147.32-49s-4-26-7-28Z"/>
    <path class="cls-4" d="M683,481.59s.01,59.68,18,90.41c8.33,14.23,17,41,43,50l-12,7-55-19s-19.92-13.77-21.33-25c-4.67-37,27.33-103.41,27.33-103.41Z"/>
    <polygon class="cls-5" points="1282 513 1229 550 1224 506 1191 585 1270 554 1282 513"/>
    <path class="cls-4" d="M1247,596l-173,54-21,23s33.84-4.08,45-7c35.59-9.33,142-42,142-42,0,0,4-26,7-28Z"/>
    <path class="cls-4" d="M1119,481.59s-.01,59.68-18,90.41c-8.33,14.23-17,41-43,50l12,7,55-19s19.92-13.77,21.33-25c4.67-37-27.33-103.41-27.33-103.41Z"/>
    <polygon class="cls-4" points="897.32 1198.84 882.8 1228.06 898.68 1256.16 913.2 1226.94 897.32 1198.84"/>
    <path class="cls-5" d="M895.32,477.84l-14.51,29.23s7.81,10.15,15.88,9.94,14.51-11.06,14.51-11.06l-15.88-28.1Z"/>
    <path class="cls-4" d="M899,1556l16-114.36v-146.64c-8,36-16,60-16,60,0,0-8-24-16-60v146.64l16,114.36"/>
    <path class="cls-4" d="M1363,1288s-45-41-51-44l-110-63s-1-22-8-35l149,82,20-58.21v-30.19s1-9.6-9-4.6l-23,23-17-44-79.31-152.33,2.36-18.56s7.95,33.89,14.95,36.89l11,8s24.4,43.45,35.7,41.22l26.09,86.33,13.22-23.56,55,74-30,122Z"/>
    <polygon class="cls-4" points="1419 1056 1371 1078 1435 1157 1415 1090 1508 1142 1434.62 1034 1434.62 893 1517 734 1438 759 1573 522 1544 529 1406 757 1409 795 1469 777 1411 886 1408 1032.19 1419 1056"/>
    <path class="cls-4" d="M1454,499s-12,24-12,26l-11-11s5,0,23-15Z"/>
    <path class="cls-4" d="M1401,519l-36,68s-5,0-22,11l34-53s12-21,24-26Z"/>
    <path class="cls-4" d="M1390,501s10-4,16-7,17-7,17-7c0,0-15,13-18,14s-15,0-15,0Z"/>
    <path class="cls-4" d="M933,578.03s-16,24.97-29,118.97c0,0-25.45-91.94-39.22-118.97,0,0,26,22.51,34.11,39.74,0,0,25.11-35.71,34.11-39.74Z"/>
    <path class="cls-5" d="M493,558l2,41s9,14,27,17l-29-58Z"/>
    <path class="cls-5" d="M1305,558l-2,41s-9,14-27,17l29-58Z"/>
    <path class="cls-5" d="M682.37,611.86l.63-28.86s12.3,32.05,20,36"/>
    <path class="cls-4" d="M816,998l-54,59-3-17-57,6s28-38,114-48Z"/>
    <path class="cls-1" d="M906,1103l-4,40,97-49-7.5-57.08-11.5-7.92-.82,60.53s-15.18-6.53-24.18,8.47l-1-44-14.39,42.06-33.61,6.94Z"/>
    <path class="cls-4" d="M919,1166s112-47,137-54l8-26s-6-2-33,10c0,0-20.57-19.3-28-21-11.42-2.61-6,4-40-12l25,41s-69,56-69,62Z"/>
    <path class="cls-1" d="M1208.22,974.57s23.78,62.43,27.78,64.43c0,0-108-81.39-112-88.7s-32.89-48.08-32.89-48.08l97.19,92.78v-20.43h19.92Z"/>
    <path class="cls-4" d="M1227,1026s-33-3-40-5c0,0,31,45,70,45l-30-40Z"/>
    <path class="cls-5" d="M867,922s18,55.48,33,71.24,78,69.76,89,67.76c0,0-40-56-48-61s-72-64-74-78Z"/>
    <polygon class="cls-5" points="1049 967 1079.99 989.66 1098.99 1041.66 1049 967"/>
    <path class="cls-4" d="M1033,1051l-50-62s93,21,111,57c0,0-28-7-57-10l-4,15Z"/>
    <path class="cls-4" d="M735,1086l11.24,28.5s46.76,14.5,132.76,53.5l-66-62,41-75-74.37,56-10.63,8-34-9Z"/>
    <polygon class="cls-5" points="779.63 1087 796.36 1087 839 1048 796 1106 769 1095 779.63 1087"/>
    <path class="cls-1" d="M790,552l-29-4s12,37,18,42l46,19,7.13,20-46.13-21,3,32s-9-25-13-29c0,0-43-53-38-82l52,23Z"/>
    <path class="cls-1" d="M1004.72,552l29-4s-12,37-18,42l-46,19-7.13,20,46.13-21-3,32s9-25,13-29c0,0,43-53,38-82l-52,23Z"/>
    <path class="cls-1" d="M582,1080h-20.94s-21.06,52-26.06,58c0,0,42-23,79-56s67-77,67-77c0,0-92,92-101,97l2-22Z"/>
    <path class="cls-1" d="M775,1128l2.85,36.79-86.85-43.79-22.47,17s11.47-26.61,12.47-35.8l8-42.2s8-3,10-7l1.12,55.9s19.88-2.9,25.88,12.1l1-46,14,43,34,10Z"/>
    <path class="cls-1" d="M900,1083.94l19-26.94-20-43s-2,22-20,45l21,24.94Z"/>
    <path class="cls-1" d="M864,1086s7-1,10-3c0,0,4,12,6,13s-16-10-16-10Z"/>
    <path class="cls-1" d="M916,1096s7.87-9.12,7.94-12.06c0,0,7.06-.94,9.06,1.06,0,0-7,10-17,11Z"/>
  </g>
  <g id="BLAKKOUT">
    <g id="T">
      <path id="T-2" data-name="T" class="cls-3" d="M1333,669l-84,95s9,1,28-7v277l43-17v-263l88-141-220,82s12.11,16.14,18,19c2.48,1.2,8.29,1.55,11,1,30.57-6.22,116-46,116-46Z"/>
      <path class="cls-2" d="M1286.4,863.25l13.03,57.75c.34,1.51,2.5,1.44,2.76-.08l8.82-52.92v143.87l-24.6,13.11v-161.73Z"/>
    </g>
    <g id="U">
      <path class="cls-3" d="M1171,907v31.5l24,17.5-3,27s-46-16-48-31c0,0-.59-20.5,0-27.3.7-8.04,1-5.7,27-17.7Z"/>
      <path class="cls-2" d="M1167,921v20.31l21.3,15.86-1.95,17.41s-35.58-14.89-36.88-24.56c0,0-.38-13.22,0-17.6.45-5.18.65-3.68,17.52-11.41Z"/>
      <path class="cls-3" d="M1199,895l29.25-15v63.94s16.75,45.06,19.75,59.06-21.88-21.78-31-28c-5.8-3.96-12.36-5.91-17-26-3.04-13.17-1-54-1-54Z"/>
      <path class="cls-3" d="M1172,691v162.56s0,11.44,10,14.44l-26,12s-13-11-13-16v-163.25l29-9.75Z"/>
      <polygon class="cls-3" points="1228 742.36 1228 850.2 1199 863.25 1199 753.93 1228 742.36"/>
      <path class="cls-2" d="M1205.22,901.22l-.22,35.78s1.97,10.5,14,31l23,27s-18-46.46-18.5-49.73v-34.18s-7.07-11.65-18.28-9.87Z"/>
      <path class="cls-2" d="M1163.96,856.42c2.49,2.2,4.04,5.34,4.65,8.61.38,2.02.38,4.25-.75,5.97-.79,1.21-2.05,2.02-3.31,2.73-1.19.67-2.68,1.29-3.87.61-.47-.27-.82-.71-1.24-1.06-.63-.52-1.42-.8-2.14-1.19-2.79-1.49-4.54-4.49-5.24-7.58-.52-2.27-1.78-10.47,1.19-11.39,1.32-.41,3.63.26,4.95.5,2.13.39,4.13,1.35,5.75,2.79Z"/>
    </g>
    <g id="K2">
      <path id="K1" class="cls-3" d="M954.5,676.5v99.23s27.5-28.73,29.5-34.73l33.05-12.39v8.49l-46.05,57.89s21.04,68.25,28,86c7.32,18.68,26,61,26,61l1,19s-13.19-13.32-19-17c-6.44-4.07-30-14-30-14l-22-79v75.5l-40,16.5v-220l39.5-46.5Z"/>
      <path id="K" class="cls-2" d="M938,868v52.62s-7,7.38-15,8.38v-63.61s6-.39,15,2.61Z"/>
      <path id="K-2" data-name="K" class="cls-2" d="M988,874l35,76s-14-11-36-22l-20-49,25,30-4-35Z"/>
    </g>
    <g id="O">
      <path id="O-2" data-name="O" class="cls-3" d="M1108.02,706l-44.58,15.96-27.44,41.04v148s2.52,4.98,3.98,6.15c1.65,1.33,6.19,2.88,8.21,3.52,3.64,1.14,15.25.33,15.25.33l17.6-4.11-39.88,17.86,18.77,15.25,75.08-32.85s-4.87-4.04-5.87-5.87c-1.33-2.43-4.9-11.29-2.13-11.29.27,0,.27-160,0-160l-18.98-34ZM1064,895.09v-141l35-10.56v160.09l-35-8.53Z"/>
      <path class="cls-2" d="M1121.81,853.02h-8.67s-2.78-1.56-7.47,40.67v13.86l-49.62,26.02s7.5,5.87,21.52,0l24.58-9.38,19.94-7.04-.28-64.13Z"/>
      <path class="cls-2" d="M1047.02,856.15c5.01,8.69,10.56,31.67,10.56,38.71v12.69h-13.33v-54.53s2.25,2.23,2.77,3.13Z"/>
    </g>
    <g id="K1-2" data-name="K1">
      <path id="K1-3" data-name="K1" class="cls-3" d="M851.5,676.5v99.23s-27.5-28.73-29.5-34.73l-33.05-12.39v8.49l46.05,57.89s-21.04,68.25-28,86c-7.32,18.68-26,61-26,61l-1,19s13.19-13.32,19-17c6.44-4.07,30-14,30-14l22-79v75.5l40,16.5v-220l-39.5-46.5Z"/>
      <path id="K-3" data-name="K" class="cls-2" d="M868,868v52.62s7,7.38,15,8.38v-63.61s-6-.39-15,2.61Z"/>
      <path id="K-4" data-name="K" class="cls-2" d="M818,874l-35,76s14-11,36-22l20-49-25,30,4-35Z"/>
    </g>
    <g id="A">
      <polygon class="cls-3" points="777.85 854 777.85 999 748 974 748 867.38 777.85 854"/>
      <path class="cls-2" d="M773,903c1.93,21.99,1,84,1,84l-20-14.26v-82.74s12.5,3.32,16,6c2.04,1.57,2.83,5.1,3,7Z"/>
      <path class="cls-3" d="M715,773s-28,77-25,81l37-20s16-54,21-51v38l28-15v-40.69s-11,1.69-21,6.69c0,0,17-25,16-26v-73s-29.62,45.25-38,61c-5.04,9.48-18,39-18,39Z"/>
    </g>
    <g id="L">
      <polygon class="cls-3" points="622 849 661 828.5 661 706.34 622 691.38 622 849"/>
      <path class="cls-3" d="M660.71,866l-38.71,19v85l104-49-49,68s8,3,66-67v-22l-82,27.51-.29-61.51Z"/>
      <polygon class="cls-2" points="645 885 645 937.31 692.69 926.5 630 958 630 893.34 645 885"/>
    </g>
    <g id="B">
      <path class="cls-2" d="M494,922v80.75s-19,17.25-21,17.25v-88.75l4-4.25,4,11s5-12,13-16Z"/>
      <path class="cls-3" d="M589,702.5l-193.5-81,15,25,5,2,54,61,54,29-9-20-34-34,70,26v93s-34,6-62,36l-59,76,88-47s7-1,33,12l-.43,35,35.43-46s9-5-43-24l46.5-36v-35l-13.5,8s-7-8.74,13.5-39.37v-40.63Z"/>
      <path class="cls-3" d="M460.5,722.5l41,13v60.02s-20,25.98-39,32.98l-2-106Z"/>
      <path class="cls-3" d="M461.5,940.5l40-43.78,2,98.78s-17.5,21.5-33,30l-16,11,6-12,1-84Z"/>
      <polygon class="cls-3" points="550 948 588.63 915.5 588.63 1005.98 541 1053 444 1090 550 988 550 948"/>
      <path class="cls-2" d="M581,939v60.13l-48,46.87s-3,8-55,21l13-15s23.93-17.33,32-24c10.23-8.44,37-38,37-38v-34l21-17Z"/>
    </g>
  </g>
</svg>